Coordinates
version=1
nRows=32
nColumns=12
inDegrees=yes

Units are S.I. units (second, meters, Newtons, ...)
Angles are in degrees

endheader
time	SC_y	SC_z	SC_x	AC_y	AC_z	AC_x	GH_y	GH_z	GH_yy	EL_x	PS_y
       0.0              -58.28          36.22          63.37          51.41           9.15          2.891          99.15          48.32         -77.86          68.91          94.06
  0.009715              -58.27          36.22          63.37          51.42          9.147           2.89          99.13          48.31         -77.84          68.91          94.06
   0.01943              -58.27          36.22          63.37          51.42          9.144           2.89          99.11           48.3         -77.82           68.9          94.06
   0.02914              -58.26          36.21          63.37          51.42           9.14          2.889          99.09          48.29         -77.79           68.9          94.07
   0.03886              -58.25          36.21          63.37          51.42          9.136          2.888          99.07          48.28         -77.77          68.89          94.07
   0.04857              -58.25          36.21          63.37          51.42          9.132          2.887          99.05          48.27         -77.74          68.89          94.07
   0.05829              -58.24          36.21          63.37          51.42          9.128          2.887          99.02          48.26         -77.71          68.88          94.07
     0.068              -58.23          36.21          63.36          51.42          9.123          2.886           99.0          48.25         -77.68          68.87          94.07
   0.07772              -58.22          36.21          63.36          51.42          9.119          2.885          98.97          48.24         -77.64          68.87          94.08
   0.08743              -58.22          36.21          63.36          51.42          9.113          2.884          98.94          48.23         -77.61          68.86          94.08
   0.09715              -58.21          36.21          63.36          51.42          9.108          2.883          98.91          48.21         -77.57          68.85          94.08
    0.1069               -58.2          36.21          63.36          51.42          9.102          2.882          98.88           48.2         -77.53          68.84          94.08
    0.1166              -58.19           36.2          63.36          51.43          9.095           2.88          98.84          48.18         -77.48          68.83          94.09
    0.1263              -58.17           36.2          63.35          51.43          9.088          2.879           98.8          48.16         -77.43          68.82          94.09
     0.136              -58.16           36.2          63.35          51.43           9.08          2.877          98.76          48.14         -77.38          68.81          94.09
    0.1457              -58.15           36.2          63.35          51.43          9.072          2.876          98.71          48.12         -77.32          68.79           94.1
    0.1554              -58.13           36.2          63.35          51.43          9.063          2.874          98.66           48.1         -77.26          68.78           94.1
    0.1652              -58.12          36.19          63.34          51.43          9.053          2.872          98.61          48.08         -77.19          68.77          94.11
    0.1749               -58.1          36.19          63.34          51.44          9.042           2.87          98.55          48.05         -77.11          68.75          94.11
    0.1846              -58.08          36.19          63.33          51.44           9.03          2.868          98.48          48.02         -77.03          68.73          94.12
    0.1943              -58.06          36.18          63.33          51.44          9.017          2.866          98.41          47.99         -76.94          68.71          94.12
     0.204              -58.04          36.18          63.33          51.44          9.003          2.863          98.34          47.95         -76.84          68.69          94.13
    0.2137              -58.01          36.18          63.32          51.45          8.987           2.86          98.25          47.91         -76.73          68.67          94.14
    0.2234              -57.98          36.17          63.32          51.45           8.97          2.856          98.15          47.87         -76.61          68.64          94.14
    0.2332              -57.95          36.17          63.31          51.45          8.951          2.853          98.05          47.82         -76.48          68.61          94.15
    0.2429              -57.92          36.16           63.3          51.46          8.929          2.849          97.93          47.77         -76.33          68.58          94.16
    0.2526              -57.88          36.16          63.29          51.46          8.905          2.844          97.79          47.71         -76.16          68.54          94.17
    0.2623              -57.83          36.15          63.29          51.47          8.877          2.839          97.64          47.64         -75.97           68.5          94.19
     0.272              -57.78          36.14          63.28          51.47          8.847          2.833          97.47          47.56         -75.75          68.45           94.2
    0.2817              -57.72          36.13          63.26          51.48          8.812          2.826          97.28          47.48         -75.51           68.4          94.21
    0.2914              -57.66          36.12          63.25          51.49          8.772          2.819          97.06          47.38         -75.23          68.34          94.23
    0.3012              -57.59          36.11          63.24          51.49          8.726           2.81          96.81          47.26         -74.91          68.27          94.25
